<?xml version="1.0" encoding="UTF-8"?> <svg xmlns="http://www.w3.org/2000/svg" width="50" height="50" viewBox="0 0 50 50" fill="none"><circle cx="25" cy="25" r="20" fill="white"></circle><path fill-rule="evenodd" clip-rule="evenodd" d="M25 48C37.7025 48 48 37.7025 48 25C48 12.2975 37.7025 2 25 2C12.2975 2 2 12.2975 2 25C2 37.7025 12.2975 48 25 48ZM12 19.2222C12 15.2399 15.2399 12 19.2222 12H30.7778C34.7601 12 38 15.2399 38 19.2222V30.7778C38 34.7601 34.7601 38 30.7778 38H19.2222C15.2399 38 12 34.7601 12 30.7778V19.2222ZM35.1111 19.2222C35.1111 16.8331 33.1669 14.8889 30.7778 14.8889H19.2222C16.8331 14.8889 14.8889 16.8331 14.8889 19.2222V30.7778C14.8889 33.1669 16.8331 35.1111 19.2222 35.1111H30.7778C33.1669 35.1111 35.1111 33.1669 35.1111 30.7778V19.2222ZM31.2008 16.7564C31.4717 16.4855 31.8391 16.3333 32.2222 16.3333C32.6053 16.3333 32.9727 16.4855 33.2436 16.7564C33.5145 17.0273 33.6667 17.3947 33.6667 17.7778C33.6667 18.1609 33.5145 18.5283 33.2436 18.7992C32.9727 19.07 32.6053 19.2222 32.2222 19.2222C31.8391 19.2222 31.4717 19.07 31.2008 18.7992C30.93 18.5283 30.7778 18.1609 30.7778 17.7778C30.7778 17.3947 30.93 17.0273 31.2008 16.7564ZM17.7778 25C17.7778 21.0177 21.0177 17.7778 25 17.7778C28.9823 17.7778 32.2222 21.0177 32.2222 25C32.2222 28.9823 28.9823 32.2222 25 32.2222C21.0177 32.2222 17.7778 28.9823 17.7778 25ZM29.3333 25C29.3333 22.6109 27.3891 20.6667 25 20.6667C22.6109 20.6667 20.6667 22.6109 20.6667 25C20.6667 27.3891 22.6109 29.3333 25 29.3333C27.3891 29.3333 29.3333 27.3891 29.3333 25Z" fill="url(#paint0_radial_259_281)"></path><defs><radialGradient id="paint0_radial_259_281" cx="0" cy="0" r="1" gradientUnits="userSpaceOnUse" gradientTransform="translate(19.1004 48.0332) scale(57.3407 57.3407)"><stop stop-color="#FFDD55"></stop><stop offset="0.328" stop-color="#FF543F"></stop><stop offset="0.348" stop-color="#FC5245"></stop><stop offset="0.504" stop-color="#E64771"></stop><stop offset="0.643" stop-color="#D53E91"></stop><stop offset="0.761" stop-color="#CC39A4"></stop><stop offset="0.841" stop-color="#C837AB"></stop></radialGradient></defs></svg> 