<?xml version="1.0" encoding="UTF-8"?> <svg xmlns="http://www.w3.org/2000/svg" width="50" height="50" viewBox="0 0 50 50" fill="none"><path d="M25 2C12.35 2 2 12.35 2 25C2 37.65 12.35 48 25 48C37.65 48 48 37.65 48 25C48 12.35 37.65 2 25 2Z" fill="#FF3D00"></path><path d="M40.2818 32.92C39.9626 34.6 38.606 35.88 36.9302 36.12C34.2968 36.52 29.9077 37 24.9601 37C20.0923 37 15.7032 36.52 12.99 36.12C11.3142 35.88 9.95761 34.6 9.6384 32.92C9.3192 31.08 9 28.36 9 25C9 21.64 9.3192 18.92 9.6384 17.08C9.95761 15.4 11.3142 14.12 12.99 13.88C15.6234 13.48 20.0125 13 24.9601 13C29.9077 13 34.217 13.48 36.9302 13.88C38.606 14.12 39.9626 15.4 40.2818 17.08C40.601 18.92 41 21.64 41 25C40.9202 28.36 40.601 31.08 40.2818 32.92Z" fill="white"></path><path d="M22 31V19L31 25L22 31Z" fill="#FF3D00"></path></svg> 